<?xml version="1.0" standalone="no"?>
<!DOCTYPE svg PUBLIC "-//W3C//DTD SVG 20010904//EN"
 "http://www.w3.org/TR/2001/REC-SVG-20010904/DTD/svg10.dtd">
<svg version="1.0" xmlns="http://www.w3.org/2000/svg"
 width="694.000000pt" height="694.000000pt" viewBox="0 0 694.000000 694.000000"
 preserveAspectRatio="xMidYMid meet">

<g transform="translate(0.000000,694.000000) scale(0.100000,-0.100000)"
fill="#000000" stroke="none">
<path d="M3200 6689 c-1103 -97 -2077 -745 -2591 -1724 -244 -465 -363 -953
-363 -1495 0 -379 50 -692 166 -1035 364 -1079 1292 -1900 2408 -2129 843
-173 1735 1 2445 477 300 201 610 499 827 797 305 419 498 898 580 1443 19
122 22 185 22 447 0 262 -3 325 -22 447 -55 366 -158 696 -312 1003 -331 659
-909 1209 -1580 1504 -493 217 -1054 311 -1580 265z m610 -264 c931 -109 1735
-629 2220 -1435 423 -701 532 -1600 290 -2384 -305 -990 -1097 -1754 -2084
-2011 -271 -71 -467 -95 -761 -95 -491 0 -888 92 -1320 305 -599 295 -1076
778 -1366 1380 -264 550 -351 1174 -248 1789 156 931 760 1740 1614 2161 318
157 621 248 965 289 158 19 533 20 690 1z"/>
<path d="M3150 6164 c-856 -102 -1611 -602 -2041 -1349 -64 -112 -169 -336
-169 -361 0 -27 281 -153 542 -242 291 -100 582 -167 903 -209 113 -14 209
-18 492 -18 l353 0 34 -85 c118 -297 144 -618 80 -1010 -114 -695 -522 -1336
-1098 -1721 -53 -35 -95 -67 -96 -70 0 -3 57 -33 128 -67 379 -181 698 -258
1117 -269 320 -8 573 25 865 114 169 51 451 172 539 232 12 8 -4 29 -79 107
-158 166 -270 334 -270 408 0 15 7 56 16 90 20 77 13 138 -27 229 -73 167 -62
246 52 370 l72 78 -6 92 c-9 154 16 193 149 242 121 44 123 49 149 265 8 69
19 141 25 160 28 96 87 150 166 150 123 0 410 -158 826 -456 104 -74 192 -133
195 -130 10 10 53 192 73 311 122 731 -61 1478 -508 2074 -100 133 -304 347
-442 463 -321 269 -742 473 -1165 562 -264 55 -614 71 -875 40z m514 -1174
c118 -40 189 -99 229 -189 16 -36 19 -60 15 -127 -5 -102 -34 -165 -97 -209
-38 -26 -53 -30 -126 -34 -101 -4 -159 13 -230 67 -97 73 -165 209 -165 328 0
135 81 199 240 189 41 -2 102 -13 134 -25z m1592 2 c168 -86 88 -418 -127
-528 -43 -22 -71 -28 -141 -32 -79 -4 -93 -2 -140 21 -68 34 -103 85 -118 178
-19 114 5 195 79 267 108 105 334 152 447 94z"/>
<path d="M3570 4873 c-71 -90 -66 -249 10 -318 25 -23 42 -10 76 57 41 81 26
205 -33 270 -21 24 -28 23 -53 -9z"/>
<path d="M5013 4878 c-79 -87 -77 -247 4 -320 19 -17 21 -17 46 10 31 33 57
101 57 151 0 54 -27 124 -59 155 l-27 26 -21 -22z"/>
<path d="M1755 2368 c-83 -23 -314 -35 -417 -21 -38 5 -68 6 -68 2 0 -10 142
-142 226 -210 184 -150 363 -241 504 -256 187 -19 484 142 738 399 l73 75 -73
-10 c-115 -14 -340 -2 -428 22 -82 23 -119 20 -219 -18 l-51 -19 -90 29 c-104
34 -103 33 -195 7z"/>
</g>
</svg>
